HIERARCHY
ROOT Hips
{
	OFFSET 0.000000 0.000000 0.000000
	CHANNELS 6 Xposition Yposition Zposition Xrotation Yrotation Zrotation
	JOINT LeftUpLeg_virtual
	{
		OFFSET 0.000000 0.000000 0.000000
		CHANNELS 3 Xrotation Yrotation Zrotation
		JOINT LeftUpLeg
		{
			OFFSET 11.394100 -6.187798 -0.413800
			CHANNELS 3 Xrotation Yrotation Zrotation
			JOINT LeftLeg
			{
				OFFSET 0.430247 -32.302673 3.732800
				CHANNELS 3 Xrotation Yrotation Zrotation
				JOINT LeftFoot
				{
					OFFSET -0.430247 -48.264931 -6.423300
					CHANNELS 3 Xrotation Yrotation Zrotation
					JOINT LeftToeBase
					{
						OFFSET 4.230900 -16.068199 23.438400
						CHANNELS 3 Xrotation Yrotation Zrotation
						JOINT LeftToe_End
						{
							OFFSET 4.510700 0.695400 19.974600
							CHANNELS 3 Xrotation Yrotation Zrotation
							End Site
							{
								OFFSET 0 0 0
							}
						}
					}
				}
			}
		}
	}
	JOINT RightUpLeg_virtual
	{
		OFFSET 0.000000 0.000000 0.000000
		CHANNELS 3 Xrotation Yrotation Zrotation
		JOINT RightUpLeg
		{
			OFFSET -11.333700 -6.187798 -0.413800
			CHANNELS 3 Xrotation Yrotation Zrotation
			JOINT RightLeg
			{
				OFFSET -0.430392 -32.302628 3.733000
				CHANNELS 3 Xrotation Yrotation Zrotation
				JOINT RightFoot
				{
					OFFSET 0.430392 -48.264973 -6.423500
					CHANNELS 3 Xrotation Yrotation Zrotation
					JOINT RightToeBase
					{
						OFFSET -4.230900 -16.068199 23.438400
						CHANNELS 3 Xrotation Yrotation Zrotation
						JOINT RightToe_End
						{
							OFFSET -4.510700 0.695400 19.974600
							CHANNELS 3 Xrotation Yrotation Zrotation
							End Site
							{
								OFFSET 0 0 0
							}
						}
					}
				}
			}
		}
	}
	JOINT Spine_virtual
	{
		OFFSET 0.000000 0.000000 0.000000
		CHANNELS 3 Xrotation Yrotation Zrotation
		JOINT Spine
		{
			OFFSET -0.002400 12.777504 0.315300
			CHANNELS 3 Xrotation Yrotation Zrotation
			JOINT Spine1
			{
				OFFSET -0.002067 5.816869 0.032633
				CHANNELS 3 Xrotation Yrotation Zrotation
				JOINT Spine1_split
				{
					OFFSET -0.002067 5.816869 0.032633
					CHANNELS 3 Xrotation Yrotation Zrotation
					JOINT Spine2
					{
						OFFSET -0.002067 5.816869 0.032633
						CHANNELS 3 Xrotation Yrotation Zrotation
						JOINT Neck_virtual
						{
							OFFSET 0.000000 0.000000 0.000000
							CHANNELS 3 Xrotation Yrotation Zrotation
							JOINT Neck
							{
								OFFSET -0.003700 21.199493 -0.826900
								CHANNELS 3 Xrotation Yrotation Zrotation
								JOINT Head
								{
									OFFSET 0.000000 20.442200 4.834800
									CHANNELS 3 Xrotation Yrotation Zrotation
									JOINT HeadTop_End
									{
										OFFSET 0.000000 34.668396 4.968400
										CHANNELS 3 Xrotation Yrotation Zrotation
										End Site
										{
											OFFSET 0 0 0
										}
									}
								}
							}
						}
						JOINT LeftShoulder_virtual
						{
							OFFSET 0.000000 0.000000 0.000000
							CHANNELS 3 Xrotation Yrotation Zrotation
							JOINT LeftShoulder
							{
								OFFSET 3.288150 8.794197 -1.372250
								CHANNELS 3 Xrotation Yrotation Zrotation
								JOINT LeftShoulder_split
								{
									OFFSET 3.288150 8.794197 -1.372250
									CHANNELS 3 Xrotation Yrotation Zrotation
									JOINT LeftArm
									{
										OFFSET 11.953299 -2.279007 -0.146200
										CHANNELS 3 Xrotation Yrotation Zrotation
										JOINT LeftForeArm
										{
											OFFSET 18.448900 0.000000 0.000000
											CHANNELS 3 Xrotation Yrotation Zrotation
											JOINT LeftHand
											{
												OFFSET 29.527798 0.000000 0.000000
												CHANNELS 3 Xrotation Yrotation Zrotation
												End Site
												{
													OFFSET 0 0 0
												}
											}
										}
									}
								}
							}
						}
						JOINT RightShoulder_virtual
						{
							OFFSET 0.000000 0.000000 0.000000
							CHANNELS 3 Xrotation Yrotation Zrotation
							JOINT RightShoulder
							{
								OFFSET -3.249400 8.794197 -1.372250
								CHANNELS 3 Xrotation Yrotation Zrotation
								JOINT RightShoulder_split
								{
									OFFSET -3.249400 8.794197 -1.372250
									CHANNELS 3 Xrotation Yrotation Zrotation
									JOINT RightArm
									{
										OFFSET -11.953299 -2.279007 -0.146200
										CHANNELS 3 Xrotation Yrotation Zrotation
										JOINT RightForeArm
										{
											OFFSET -18.448900 0.000000 0.000000
											CHANNELS 3 Xrotation Yrotation Zrotation
											JOINT RightHand
											{
												OFFSET -29.527802 0.000000 0.000000
												CHANNELS 3 Xrotation Yrotation Zrotation
												End Site
												{
													OFFSET 0 0 0
												}
											}
										}
									}
								}
							}
						}
					}
				}
			}
		}
	}
}
MOTION
Frames: 10
Frame Time: 0.03333333
-1.584325 132.585983 17.784046 0.000000 0.000000 0.000000 8.119597 -40.139379 5.618227 -89.084907 -19.186073 17.534127 80.938117 -1.910802 -0.717100 13.477012 4.956966 -2.590787 -14.483700 3.055654 -1.636631 0.000000 0.000000 0.000000 7.676419 -35.650739 4.835662 -138.744228 -45.683966 -4.789540 120.118070 -8.851609 -27.066469 55.508394 10.561330 24.866373 13.022194 5.216834 -11.846929 0.000000 0.000000 0.000000 4.589612 -41.258389 2.163259 30.868596 -7.715236 -6.132312 11.183402 1.118902 -3.275905 0.119321 1.441336 1.048924 0.000000 0.000000 0.000000 11.176939 0.889615 -2.320039 -6.439606 18.606991 -15.827553 -27.743323 11.352380 2.708072 0.000000 0.000000 0.000000 12.876997 1.478767 -2.914437 12.087918 -12.201279 -1.300499 1.101172 -3.700825 -4.530366 -54.063611 4.825532 1.096236 47.459313 -18.254572 30.888544 0.000000 0.000000 0.000000 14.305181 1.575509 -2.875873 17.665354 20.697734 -6.252929 0.440348 4.626871 3.859385 -32.332029 -13.647788 3.917497 -51.455657 49.849169 41.247219 0.000000 0.000000 0.000000 
-1.623588 132.618927 17.814180 0.000000 0.000000 0.000000 8.120422 -39.846241 5.524171 -89.205091 -19.043655 17.636744 80.903925 -1.845509 -0.804444 13.587924 4.958325 -2.565787 -14.477240 3.066605 -1.684066 0.000000 0.000000 0.000000 7.731362 -35.572790 4.776618 -138.687647 -45.699341 -4.544813 120.133711 -8.838775 -27.175991 55.546913 10.667477 24.983044 12.967187 5.243774 -11.845233 0.000000 0.000000 0.000000 4.624581 -41.143045 2.077512 30.790780 -7.793382 -6.145532 11.230603 1.064498 -3.280497 0.122865 1.546030 0.922590 0.000000 0.000000 0.000000 11.204777 0.861214 -2.335827 -6.605528 18.624995 -15.706406 -27.762762 11.339311 2.829484 0.000000 0.000000 0.000000 12.905707 1.442375 -2.869145 12.262489 -12.523792 -0.451401 0.920733 -3.564500 -4.142562 -55.451137 4.052174 1.508423 47.429790 -18.433113 30.965107 0.000000 0.000000 0.000000 14.346720 1.502009 -2.872945 17.751995 20.374721 -6.664444 0.628056 4.758149 3.588381 -32.892299 -13.768579 3.594411 -51.649074 50.233931 41.413541 0.000000 0.000000 0.000000 
-1.612459 132.644379 17.816494 0.000000 0.000000 0.000000 8.084574 -39.315768 5.291199 -89.445514 -18.947206 17.672286 80.911370 -1.836510 -0.832608 13.805592 4.878694 -2.420108 -14.455537 3.059893 -1.655217 0.000000 0.000000 0.000000 7.772655 -35.235184 4.579248 -138.690242 -45.788362 -4.219047 120.158587 -8.851217 -27.367808 55.783241 10.886578 25.214401 12.760674 5.254585 -11.753945 0.000000 0.000000 0.000000 4.754702 -40.879464 1.963403 30.689584 -7.863879 -6.206881 11.260583 1.011840 -3.303367 0.068698 1.627400 0.873414 0.000000 0.000000 0.000000 11.268109 0.856821 -2.365802 -6.749343 18.561556 -15.501333 -27.928932 11.266435 3.023011 0.000000 0.000000 0.000000 12.943025 1.440990 -2.826604 12.542895 -12.992327 0.987417 1.037360 -3.147501 -4.018952 -57.026544 2.551957 2.228686 47.385366 -18.628047 30.964704 0.000000 0.000000 0.000000 14.381243 1.445862 -2.897167 18.006108 19.933759 -7.578782 0.786598 4.778774 3.640432 -33.844868 -14.079984 2.801037 -52.768286 51.080311 42.630824 0.000000 0.000000 0.000000 
-1.572854 132.658890 17.835457 0.000000 0.000000 0.000000 8.024344 -38.664144 4.952524 -89.796292 -18.921383 17.632652 80.989057 -1.889499 -0.793153 14.113754 4.727259 -2.179818 -14.446359 3.036666 -1.557043 0.000000 0.000000 0.000000 7.782293 -34.746122 4.268442 -138.740280 -45.958133 -3.874356 120.187451 -8.933260 -27.596304 56.078937 11.088697 25.489609 12.585195 5.238401 -11.572267 0.000000 0.000000 0.000000 4.963608 -40.526651 1.826321 30.576213 -7.917892 -6.301632 11.285831 0.964751 -3.331314 0.003038 1.622699 0.866555 0.000000 0.000000 0.000000 11.379052 0.873716 -2.403259 -6.859801 18.452431 -15.253214 -28.191307 11.152767 3.238109 0.000000 0.000000 0.000000 12.991041 1.461959 -2.796682 12.909085 -13.578417 2.782523 1.293778 -2.726743 -4.199022 -58.458018 0.593663 2.878016 47.254804 -18.608167 30.788556 0.000000 0.000000 0.000000 14.409257 1.413765 -2.940125 18.388312 19.474618 -8.846344 0.905817 4.714772 3.865230 -34.958476 -14.427333 1.765223 -54.466271 52.121488 44.528633 0.000000 0.000000 0.000000 
-1.527884 132.673523 17.877291 0.000000 0.000000 0.000000 7.955191 -37.958623 4.542636 -90.217530 -18.957929 17.541459 81.137361 -1.981412 -0.704517 14.463494 4.533822 -1.867644 -14.498065 3.009164 -1.420406 0.000000 0.000000 0.000000 7.744938 -34.212144 3.891988 -138.871229 -46.174432 -3.575075 120.258908 -9.103718 -27.784021 56.350235 11.187504 25.739834 12.619650 5.194647 -11.321793 0.000000 0.000000 0.000000 5.201391 -40.135243 1.657097 30.472018 -7.946085 -6.407110 11.320396 0.921688 -3.355424 -0.046849 1.545207 0.878462 0.000000 0.000000 0.000000 11.523181 0.889448 -2.433802 -6.920302 18.329919 -15.023565 -28.491116 11.052538 3.425155 0.000000 0.000000 0.000000 13.061730 1.481543 -2.781327 13.339903 -14.227798 4.710311 1.547347 -2.503046 -4.507374 -59.611617 -1.705613 3.145540 47.090756 -18.321388 30.510964 0.000000 0.000000 0.000000 14.435998 1.398380 -2.981195 18.846367 19.132393 -10.258119 0.979658 4.642005 4.046803 -36.093233 -14.565607 0.723756 -56.282490 53.089568 46.603060 0.000000 0.000000 0.000000 
-1.489820 132.709106 17.906652 0.000000 0.000000 0.000000 7.876225 -37.302477 4.101078 -90.685808 -19.035119 17.432391 81.349930 -2.066455 -0.600112 14.835449 4.337882 -1.526077 -14.568966 2.994889 -1.306887 0.000000 0.000000 0.000000 7.677240 -33.759815 3.490886 -139.099685 -46.407594 -3.363189 120.414077 -9.333882 -27.896683 56.622316 11.214886 25.965524 12.796298 5.143586 -11.046444 0.000000 0.000000 0.000000 5.432209 -39.819234 1.459749 30.400595 -7.944471 -6.501354 11.376641 0.873748 -3.370108 0.047999 1.509688 0.923258 0.000000 0.000000 0.000000 11.672568 0.884638 -2.449354 -6.933655 18.261117 -14.855055 -28.799359 11.009790 3.556482 0.000000 0.000000 0.000000 13.155915 1.477483 -2.783359 13.790758 -14.903524 6.501469 1.662907 -2.597579 -4.919624 -60.474529 -3.995461 2.965946 46.952267 -17.847528 30.228303 0.000000 0.000000 0.000000 14.476705 1.386441 -3.019255 19.345575 19.004785 -11.644048 0.965618 4.560622 4.165058 -37.011590 -14.304861 0.006613 -57.651031 53.790834 48.228615 0.000000 0.000000 0.000000 
-1.476925 132.759445 17.945253 0.000000 0.000000 0.000000 7.765901 -36.832642 3.657639 -91.180068 -19.134147 17.333208 81.609559 -2.130855 -0.485194 15.240334 4.138777 -1.225096 -14.597941 3.001860 -1.260871 0.000000 0.000000 0.000000 7.590861 -33.440237 3.090780 -139.416018 -46.637771 -3.232591 120.641058 -9.547617 -27.979366 56.920611 11.282122 26.247929 12.862679 5.112502 -10.817194 0.000000 0.000000 0.000000 5.630551 -39.609025 1.242954 30.384619 -7.912734 -6.564819 11.465712 0.825708 -3.374962 0.210158 1.521997 0.932380 0.000000 0.000000 0.000000 11.785441 0.852946 -2.452136 -6.919494 18.260687 -14.801597 -29.079011 11.039280 3.619058 0.000000 0.000000 0.000000 13.259786 1.439100 -2.805069 14.219411 -15.569797 7.978735 1.815839 -2.867049 -5.053616 -61.267535 -6.047468 2.356554 46.887101 -17.338222 30.039729 0.000000 0.000000 0.000000 14.546336 1.374439 -3.050277 19.836616 19.073691 -12.842257 0.927371 4.474535 4.189682 -37.634838 -13.464803 -0.213621 -58.265024 54.206137 49.042285 0.000000 0.000000 0.000000 
-1.489640 132.807739 17.998955 0.000000 0.000000 0.000000 7.642987 -36.580103 3.254919 -91.677504 -19.252341 17.256673 81.896775 -2.169091 -0.365960 15.661892 3.928211 -1.014564 -14.568379 3.031340 -1.288275 0.000000 0.000000 0.000000 7.474846 -33.265757 2.720451 -139.772554 -46.870558 -3.149837 120.881958 -9.686018 -28.083986 57.208855 11.427300 26.607613 12.693301 5.116338 -10.687224 0.000000 0.000000 0.000000 5.735606 -39.538490 1.003546 30.454389 -7.868360 -6.589428 11.579741 0.774329 -3.375808 0.320577 1.581154 0.919985 0.000000 0.000000 0.000000 11.842339 0.799093 -2.438984 -6.886217 18.333198 -14.864829 -29.303755 11.185820 3.641655 0.000000 0.000000 0.000000 13.357446 1.375241 -2.832726 14.584283 -16.189536 9.026378 1.874686 -3.135898 -4.906328 -62.054700 -7.742273 1.448551 46.942463 -16.982323 30.028507 0.000000 0.000000 0.000000 14.637898 1.349513 -3.065482 20.268539 19.306955 -13.757295 0.893955 4.411022 4.207808 -37.972560 -12.058194 0.163810 -57.888264 54.299936 48.772595 0.000000 0.000000 0.000000 
-1.517853 132.835144 18.069532 0.000000 0.000000 0.000000 7.504621 -36.537735 2.915818 -92.139675 -19.385984 17.215734 82.196252 -2.169151 -0.252611 16.069589 3.701884 -0.921433 -14.508153 3.076382 -1.361816 0.000000 0.000000 0.000000 7.328401 -33.246772 2.397463 -140.076088 -47.129907 -3.092848 121.083777 -9.765827 -28.196887 57.416421 11.552128 26.955811 12.473603 5.141017 -10.643929 0.000000 0.000000 0.000000 5.706332 -39.636476 0.746165 30.612881 -7.827692 -6.589491 11.717028 0.721310 -3.380169 0.369497 1.654932 0.891214 0.000000 0.000000 0.000000 11.861126 0.736582 -2.421120 -6.833611 18.463806 -14.992868 -29.462448 11.380857 3.665554 0.000000 0.000000 0.000000 13.443760 1.297155 -2.860346 14.844742 -16.767001 9.570348 1.821602 -3.359439 -4.679071 -62.730049 -8.931236 0.427574 47.102856 -16.910071 30.181858 0.000000 0.000000 0.000000 14.724582 1.308272 -3.072034 20.602704 19.675757 -14.309306 0.853581 4.294045 4.221574 -38.092385 -10.243632 1.123776 -56.488567 54.048182 47.380052 0.000000 0.000000 0.000000 
-1.548259 132.851593 18.147802 0.000000 0.000000 0.000000 7.340987 -36.705891 2.644923 -92.512617 -19.536482 17.210362 82.502852 -2.141769 -0.143425 16.427874 3.460491 -0.931082 -14.503668 3.123012 -1.434306 0.000000 0.000000 0.000000 7.135040 -33.346172 2.130479 -140.292168 -47.415638 -3.065807 121.219465 -9.814062 -28.278303 57.487339 11.556391 27.196039 12.393301 5.167473 -10.651865 0.000000 0.000000 0.000000 5.556909 -39.877329 0.491086 30.838318 -7.807668 -6.580530 11.862812 0.664590 -3.386953 0.317447 1.688368 0.877774 0.000000 0.000000 0.000000 11.877950 0.673594 -2.409980 -6.778924 18.618338 -15.129412 -29.554717 11.496526 3.721852 0.000000 0.000000 0.000000 13.526375 1.213397 -2.887145 14.983804 -17.306967 9.612992 1.764289 -3.520009 -4.364888 -63.205744 -9.742125 -0.680879 47.307239 -17.001692 30.380299 0.000000 0.000000 0.000000 14.796751 1.259326 -3.073391 20.797912 20.134001 -14.440343 0.829847 4.152870 4.240030 -38.099137 -8.127120 2.441017 -54.350008 53.466212 45.150819 0.000000 0.000000 0.000000 
